<!DOCTYPE svg PUBLIC "-//W3C//DTD SVG 1.1//EN" "http://www.w3.org/Graphics/SVG/1.1/DTD/svg11.dtd">

<!-- Uploaded to: SVG Repo, www.svgrepo.com, Transformed by: SVG Repo Mixer Tools -->
<svg fill="#ffff" version="1.1" id="Capa_1" xmlns="http://www.w3.org/2000/svg" xmlns:xlink="http://www.w3.org/1999/xlink" width="34px" height="34px" viewBox="0 0 50 50" xml:space="preserve">

<g id="SVGRepo_bgCarrier" stroke-width="0"/>

<g id="SVGRepo_tracerCarrier" stroke-linecap="round" stroke-linejoin="round"/>

<g id="SVGRepo_iconCarrier"> <g> <path d="M44.205,32.338c-1.231,0-2.24-1.135-2.24-2.521l-2.522-19.671c0-1.386-1.136-2.523-2.522-2.523h-3.162 C33.138,3.323,29.464,0,25,0c-4.464,0-8.136,3.323-8.754,7.622h-3.164c-1.387,0-2.523,1.137-2.523,2.523L8.036,29.816 c0,1.388-1.009,2.521-2.241,2.521s-2.241,1.137-2.241,2.521v12.617C3.554,48.864,4.689,50,6.076,50h37.847 c1.388,0,2.522-1.136,2.522-2.523V34.859C46.446,33.475,45.437,32.338,44.205,32.338z M25,2.209c3.25,0,5.955,2.334,6.546,5.412 H18.453C19.047,4.544,21.753,2.209,25,2.209z M17.43,13.206h15.14c0.696,0,1.262,0.565,1.262,1.262 c0,0.696-0.564,1.261-1.262,1.261H19.908c0.335,0,0.607,0.416,0.607,0.926v0.707c0,0.098-0.018,0.188-0.037,0.276 c0.373,0.121,0.646,0.46,0.646,0.87v3.265c0,0.51-0.418,0.927-0.928,0.927h-0.579c-0.508,0-0.926-0.417-0.926-0.927v-3.265 c0-0.41,0.275-0.75,0.646-0.87c-0.02-0.088-0.038-0.179-0.038-0.276v-0.707c0-0.51,0.274-0.926,0.608-0.926H17.43 c-0.696,0-1.261-0.564-1.261-1.261C16.169,13.771,16.733,13.206,17.43,13.206z M37.617,38.646H14.863 c0.335,0,0.607,0.416,0.607,0.926v0.705c0,0.099-0.017,0.189-0.037,0.279c0.37,0.12,0.646,0.457,0.646,0.867v3.266 c0,0.511-0.418,0.926-0.927,0.926h-0.579c-0.509,0-0.926-0.416-0.926-0.926v-3.266c0-0.41,0.275-0.748,0.645-0.867 c-0.019-0.09-0.037-0.181-0.037-0.279v-0.705c0-0.51,0.271-0.926,0.608-0.926h-2.479c-0.697,0-1.262-0.565-1.262-1.263 c0-0.696,0.565-1.261,1.262-1.261h25.231c0.697,0,1.262,0.564,1.262,1.261C38.876,38.082,38.313,38.646,37.617,38.646z"/> </g> </g>

</svg>