<!DOCTYPE svg PUBLIC "-//W3C//DTD SVG 1.1//EN" "http://www.w3.org/Graphics/SVG/1.1/DTD/svg11.dtd">

<!-- Uploaded to: SVG Repo, www.svgrepo.com, Transformed by: SVG Repo Mixer Tools -->
<svg fill="#969493" version="1.1" id="Layer_1" xmlns="http://www.w3.org/2000/svg" xmlns:xlink="http://www.w3.org/1999/xlink" viewBox="-45.86 -45.86 550.34 550.34" xml:space="preserve" width="34px" height="34px" transform="matrix(1, 0, 0, 1, 0, 0)" stroke="#969493" stroke-width="25.224155000000003">

<g id="SVGRepo_bgCarrier" stroke-width="0"/>

<g id="SVGRepo_tracerCarrier" stroke-linecap="round" stroke-linejoin="round" stroke="#fff" stroke-width="38.524164"> <g> <rect x="214.311" width="30" height="199.088"/> <path d="M305.42,100.692l-12.22,27.398c56.585,25.237,93.148,81.561,93.148,143.492c0,86.591-70.447,157.039-157.039,157.039 S72.272,358.174,72.272,271.583c0-61.931,36.563-118.255,93.148-143.492l-12.22-27.398 c-67.387,30.054-110.929,97.132-110.929,170.89c0,103.133,83.905,187.039,187.039,187.039s187.039-83.905,187.039-187.039 C416.349,197.825,372.807,130.747,305.42,100.692z"/> </g> </g>

<g id="SVGRepo_iconCarrier"> <g> <rect x="214.311" width="30" height="199.088"/> <path d="M305.42,100.692l-12.22,27.398c56.585,25.237,93.148,81.561,93.148,143.492c0,86.591-70.447,157.039-157.039,157.039 S72.272,358.174,72.272,271.583c0-61.931,36.563-118.255,93.148-143.492l-12.22-27.398 c-67.387,30.054-110.929,97.132-110.929,170.89c0,103.133,83.905,187.039,187.039,187.039s187.039-83.905,187.039-187.039 C416.349,197.825,372.807,130.747,305.42,100.692z"/> </g> </g>

</svg>